<mxfile host="app.diagrams.net" agent="Mozilla/5.0 (Windows NT 10.0; Win64; x64) AppleWebKit/537.36 (KHTML, like Gecko) Chrome/124.0.0.0 Safari/537.36" version="24.7.17">
  <diagram id="C5RBs43oDa-KdzZeNtuy" name="Page-1">
    <mxGraphModel dx="2287" dy="852" grid="1" gridSize="10" guides="1" tooltips="1" connect="1" arrows="1" fold="1" page="1" pageScale="1" pageWidth="827" pageHeight="1169" math="0" shadow="0">
      <root>
        <mxCell id="WIyWlLk6GJQsqaUBKTNV-0" />
        <mxCell id="WIyWlLk6GJQsqaUBKTNV-1" parent="WIyWlLk6GJQsqaUBKTNV-0" />
        <mxCell id="yHrM_yajXBEPBqZugzBF-0" value="Hotel" style="swimlane;fontStyle=1;align=center;verticalAlign=top;childLayout=stackLayout;horizontal=1;startSize=26;horizontalStack=0;resizeParent=1;resizeParentMax=0;resizeLast=0;collapsible=1;marginBottom=0;whiteSpace=wrap;html=1;" parent="WIyWlLk6GJQsqaUBKTNV-1" vertex="1">
          <mxGeometry x="290" y="40" width="180" height="110" as="geometry" />
        </mxCell>
        <mxCell id="yHrM_yajXBEPBqZugzBF-1" value="-name:string&lt;div&gt;-hStars:double&lt;/div&gt;&lt;div&gt;&lt;div&gt;&lt;br&gt;&lt;/div&gt;&lt;/div&gt;" style="text;strokeColor=none;fillColor=none;align=left;verticalAlign=top;spacingLeft=4;spacingRight=4;overflow=hidden;rotatable=0;points=[[0,0.5],[1,0.5]];portConstraint=eastwest;whiteSpace=wrap;html=1;" parent="yHrM_yajXBEPBqZugzBF-0" vertex="1">
          <mxGeometry y="26" width="180" height="34" as="geometry" />
        </mxCell>
        <mxCell id="yHrM_yajXBEPBqZugzBF-2" value="" style="line;strokeWidth=1;fillColor=none;align=left;verticalAlign=middle;spacingTop=-1;spacingLeft=3;spacingRight=3;rotatable=0;labelPosition=right;points=[];portConstraint=eastwest;strokeColor=inherit;" parent="yHrM_yajXBEPBqZugzBF-0" vertex="1">
          <mxGeometry y="60" width="180" height="8" as="geometry" />
        </mxCell>
        <mxCell id="yHrM_yajXBEPBqZugzBF-3" value="+editHotelName(name):void&lt;div&gt;+editHotelStars(newStars):void&lt;/div&gt;" style="text;strokeColor=none;fillColor=none;align=left;verticalAlign=top;spacingLeft=4;spacingRight=4;overflow=hidden;rotatable=0;points=[[0,0.5],[1,0.5]];portConstraint=eastwest;whiteSpace=wrap;html=1;" parent="yHrM_yajXBEPBqZugzBF-0" vertex="1">
          <mxGeometry y="68" width="180" height="42" as="geometry" />
        </mxCell>
        <mxCell id="yHrM_yajXBEPBqZugzBF-4" value="Location" style="swimlane;fontStyle=1;align=center;verticalAlign=top;childLayout=stackLayout;horizontal=1;startSize=26;horizontalStack=0;resizeParent=1;resizeParentMax=0;resizeLast=0;collapsible=1;marginBottom=0;whiteSpace=wrap;html=1;" parent="WIyWlLk6GJQsqaUBKTNV-1" vertex="1">
          <mxGeometry x="250" y="280" width="260" height="160" as="geometry" />
        </mxCell>
        <mxCell id="yHrM_yajXBEPBqZugzBF-5" value="&lt;div&gt;&lt;div&gt;-address:string&lt;/div&gt;&lt;/div&gt;&lt;div&gt;-city:string&lt;/div&gt;&lt;div&gt;-state:string&lt;/div&gt;&lt;div&gt;+country:string&lt;/div&gt;" style="text;strokeColor=none;fillColor=none;align=left;verticalAlign=top;spacingLeft=4;spacingRight=4;overflow=hidden;rotatable=0;points=[[0,0.5],[1,0.5]];portConstraint=eastwest;whiteSpace=wrap;html=1;" parent="yHrM_yajXBEPBqZugzBF-4" vertex="1">
          <mxGeometry y="26" width="260" height="64" as="geometry" />
        </mxCell>
        <mxCell id="yHrM_yajXBEPBqZugzBF-6" value="" style="line;strokeWidth=1;fillColor=none;align=left;verticalAlign=middle;spacingTop=-1;spacingLeft=3;spacingRight=3;rotatable=0;labelPosition=right;points=[];portConstraint=eastwest;strokeColor=inherit;" parent="yHrM_yajXBEPBqZugzBF-4" vertex="1">
          <mxGeometry y="90" width="260" height="8" as="geometry" />
        </mxCell>
        <mxCell id="yHrM_yajXBEPBqZugzBF-7" value="&lt;div&gt;+location()&lt;/div&gt;+editLocation(address , city , state , country , name ):void" style="text;strokeColor=none;fillColor=none;align=left;verticalAlign=top;spacingLeft=4;spacingRight=4;overflow=hidden;rotatable=0;points=[[0,0.5],[1,0.5]];portConstraint=eastwest;whiteSpace=wrap;html=1;" parent="yHrM_yajXBEPBqZugzBF-4" vertex="1">
          <mxGeometry y="98" width="260" height="62" as="geometry" />
        </mxCell>
        <mxCell id="yHrM_yajXBEPBqZugzBF-13" value="ContactInfo" style="swimlane;fontStyle=1;align=center;verticalAlign=top;childLayout=stackLayout;horizontal=1;startSize=26;horizontalStack=0;resizeParent=1;resizeParentMax=0;resizeLast=0;collapsible=1;marginBottom=0;whiteSpace=wrap;html=1;" parent="WIyWlLk6GJQsqaUBKTNV-1" vertex="1">
          <mxGeometry x="660" y="20" width="180" height="220" as="geometry" />
        </mxCell>
        <mxCell id="yHrM_yajXBEPBqZugzBF-14" value="&lt;div&gt;&lt;div&gt;-email:string&lt;/div&gt;&lt;/div&gt;&lt;div&gt;-website:string&lt;/div&gt;&lt;div&gt;-phoneNumber:string&amp;nbsp;&lt;/div&gt;&lt;div&gt;&lt;br&gt;&lt;/div&gt;" style="text;strokeColor=none;fillColor=none;align=left;verticalAlign=top;spacingLeft=4;spacingRight=4;overflow=hidden;rotatable=0;points=[[0,0.5],[1,0.5]];portConstraint=eastwest;whiteSpace=wrap;html=1;" parent="yHrM_yajXBEPBqZugzBF-13" vertex="1">
          <mxGeometry y="26" width="180" height="84" as="geometry" />
        </mxCell>
        <mxCell id="yHrM_yajXBEPBqZugzBF-15" value="" style="line;strokeWidth=1;fillColor=none;align=left;verticalAlign=middle;spacingTop=-1;spacingLeft=3;spacingRight=3;rotatable=0;labelPosition=right;points=[];portConstraint=eastwest;strokeColor=inherit;" parent="yHrM_yajXBEPBqZugzBF-13" vertex="1">
          <mxGeometry y="110" width="180" height="8" as="geometry" />
        </mxCell>
        <mxCell id="yHrM_yajXBEPBqZugzBF-16" value="+setContactInfo(email , website , phone):void&amp;nbsp;&lt;div&gt;&lt;br&gt;&lt;/div&gt;&lt;div&gt;+fetchHotelData():void&lt;/div&gt;&lt;div&gt;-checkLocation():void&lt;/div&gt;&lt;div&gt;+contactInfo()&lt;br&gt;&lt;div&gt;&lt;br&gt;&lt;/div&gt;&lt;/div&gt;" style="text;strokeColor=none;fillColor=none;align=left;verticalAlign=top;spacingLeft=4;spacingRight=4;overflow=hidden;rotatable=0;points=[[0,0.5],[1,0.5]];portConstraint=eastwest;whiteSpace=wrap;html=1;" parent="yHrM_yajXBEPBqZugzBF-13" vertex="1">
          <mxGeometry y="118" width="180" height="102" as="geometry" />
        </mxCell>
        <mxCell id="yXndybNeEl5Hlsat1MIW-0" value="Room" style="swimlane;fontStyle=1;align=center;verticalAlign=top;childLayout=stackLayout;horizontal=1;startSize=26;horizontalStack=0;resizeParent=1;resizeParentMax=0;resizeLast=0;collapsible=1;marginBottom=0;whiteSpace=wrap;html=1;" vertex="1" parent="WIyWlLk6GJQsqaUBKTNV-1">
          <mxGeometry x="-70" y="150" width="220" height="160" as="geometry" />
        </mxCell>
        <mxCell id="yXndybNeEl5Hlsat1MIW-1" value="&lt;div&gt;&lt;div&gt;-type:string&lt;/div&gt;&lt;/div&gt;&lt;div&gt;-roomNumber:int&lt;/div&gt;" style="text;strokeColor=none;fillColor=none;align=left;verticalAlign=top;spacingLeft=4;spacingRight=4;overflow=hidden;rotatable=0;points=[[0,0.5],[1,0.5]];portConstraint=eastwest;whiteSpace=wrap;html=1;" vertex="1" parent="yXndybNeEl5Hlsat1MIW-0">
          <mxGeometry y="26" width="220" height="44" as="geometry" />
        </mxCell>
        <mxCell id="yXndybNeEl5Hlsat1MIW-2" value="" style="line;strokeWidth=1;fillColor=none;align=left;verticalAlign=middle;spacingTop=-1;spacingLeft=3;spacingRight=3;rotatable=0;labelPosition=right;points=[];portConstraint=eastwest;strokeColor=inherit;" vertex="1" parent="yXndybNeEl5Hlsat1MIW-0">
          <mxGeometry y="70" width="220" height="8" as="geometry" />
        </mxCell>
        <mxCell id="yXndybNeEl5Hlsat1MIW-3" value="&lt;div&gt;&lt;div&gt;+room()&lt;/div&gt;&lt;/div&gt;&lt;div&gt;+setRoomType(type):bool&lt;/div&gt;&lt;div&gt;+checkAvailability(roomNumber):bool&lt;/div&gt;" style="text;strokeColor=none;fillColor=none;align=left;verticalAlign=top;spacingLeft=4;spacingRight=4;overflow=hidden;rotatable=0;points=[[0,0.5],[1,0.5]];portConstraint=eastwest;whiteSpace=wrap;html=1;" vertex="1" parent="yXndybNeEl5Hlsat1MIW-0">
          <mxGeometry y="78" width="220" height="82" as="geometry" />
        </mxCell>
        <mxCell id="yXndybNeEl5Hlsat1MIW-7" style="edgeStyle=orthogonalEdgeStyle;rounded=0;orthogonalLoop=1;jettySize=auto;html=1;exitX=0;exitY=0.5;exitDx=0;exitDy=0;entryX=1;entryY=0.5;entryDx=0;entryDy=0;endArrow=block;endFill=0;" edge="1" parent="WIyWlLk6GJQsqaUBKTNV-1" source="yHrM_yajXBEPBqZugzBF-14" target="yHrM_yajXBEPBqZugzBF-1">
          <mxGeometry relative="1" as="geometry" />
        </mxCell>
        <mxCell id="yXndybNeEl5Hlsat1MIW-8" style="edgeStyle=orthogonalEdgeStyle;rounded=0;orthogonalLoop=1;jettySize=auto;html=1;exitX=0.5;exitY=0;exitDx=0;exitDy=0;entryX=0.513;entryY=1.021;entryDx=0;entryDy=0;entryPerimeter=0;endArrow=block;endFill=0;" edge="1" parent="WIyWlLk6GJQsqaUBKTNV-1" source="yHrM_yajXBEPBqZugzBF-4" target="yHrM_yajXBEPBqZugzBF-3">
          <mxGeometry relative="1" as="geometry" />
        </mxCell>
        <mxCell id="yXndybNeEl5Hlsat1MIW-9" style="edgeStyle=orthogonalEdgeStyle;rounded=0;orthogonalLoop=1;jettySize=auto;html=1;exitX=1;exitY=0.5;exitDx=0;exitDy=0;entryX=0;entryY=0.5;entryDx=0;entryDy=0;endArrow=diamondThin;endFill=1;" edge="1" parent="WIyWlLk6GJQsqaUBKTNV-1" source="yXndybNeEl5Hlsat1MIW-1" target="yHrM_yajXBEPBqZugzBF-3">
          <mxGeometry relative="1" as="geometry" />
        </mxCell>
        <mxCell id="yXndybNeEl5Hlsat1MIW-14" style="edgeStyle=orthogonalEdgeStyle;rounded=0;orthogonalLoop=1;jettySize=auto;html=1;exitX=0.5;exitY=0;exitDx=0;exitDy=0;entryX=0;entryY=0.5;entryDx=0;entryDy=0;endArrow=diamondThin;endFill=0;" edge="1" parent="WIyWlLk6GJQsqaUBKTNV-1" source="yXndybNeEl5Hlsat1MIW-10" target="yXndybNeEl5Hlsat1MIW-3">
          <mxGeometry relative="1" as="geometry" />
        </mxCell>
        <mxCell id="yXndybNeEl5Hlsat1MIW-10" value="Amenities" style="swimlane;fontStyle=1;align=center;verticalAlign=top;childLayout=stackLayout;horizontal=1;startSize=26;horizontalStack=0;resizeParent=1;resizeParentMax=0;resizeLast=0;collapsible=1;marginBottom=0;whiteSpace=wrap;html=1;" vertex="1" parent="WIyWlLk6GJQsqaUBKTNV-1">
          <mxGeometry x="-220" y="400" width="260" height="160" as="geometry" />
        </mxCell>
        <mxCell id="yXndybNeEl5Hlsat1MIW-11" value="&lt;div&gt;&lt;div&gt;-subType:string&lt;/div&gt;&lt;/div&gt;&lt;div&gt;-foodType:string&lt;/div&gt;&lt;div&gt;-barType:string&lt;/div&gt;&lt;div&gt;-Travels&lt;/div&gt;" style="text;strokeColor=none;fillColor=none;align=left;verticalAlign=top;spacingLeft=4;spacingRight=4;overflow=hidden;rotatable=0;points=[[0,0.5],[1,0.5]];portConstraint=eastwest;whiteSpace=wrap;html=1;" vertex="1" parent="yXndybNeEl5Hlsat1MIW-10">
          <mxGeometry y="26" width="260" height="84" as="geometry" />
        </mxCell>
        <mxCell id="yXndybNeEl5Hlsat1MIW-12" value="" style="line;strokeWidth=1;fillColor=none;align=left;verticalAlign=middle;spacingTop=-1;spacingLeft=3;spacingRight=3;rotatable=0;labelPosition=right;points=[];portConstraint=eastwest;strokeColor=inherit;" vertex="1" parent="yXndybNeEl5Hlsat1MIW-10">
          <mxGeometry y="110" width="260" height="8" as="geometry" />
        </mxCell>
        <mxCell id="yXndybNeEl5Hlsat1MIW-13" value="&lt;div&gt;&lt;div&gt;+setSubType(type):void&lt;/div&gt;&lt;/div&gt;&lt;div&gt;+setAmenitiesPlan(food , bar , travels ):void&lt;/div&gt;" style="text;strokeColor=none;fillColor=none;align=left;verticalAlign=top;spacingLeft=4;spacingRight=4;overflow=hidden;rotatable=0;points=[[0,0.5],[1,0.5]];portConstraint=eastwest;whiteSpace=wrap;html=1;" vertex="1" parent="yXndybNeEl5Hlsat1MIW-10">
          <mxGeometry y="118" width="260" height="42" as="geometry" />
        </mxCell>
        <mxCell id="yXndybNeEl5Hlsat1MIW-15" value="Policy" style="swimlane;fontStyle=1;align=center;verticalAlign=top;childLayout=stackLayout;horizontal=1;startSize=26;horizontalStack=0;resizeParent=1;resizeParentMax=0;resizeLast=0;collapsible=1;marginBottom=0;whiteSpace=wrap;html=1;" vertex="1" parent="WIyWlLk6GJQsqaUBKTNV-1">
          <mxGeometry x="-350" width="180" height="170" as="geometry" />
        </mxCell>
        <mxCell id="yXndybNeEl5Hlsat1MIW-16" value="&lt;div&gt;&lt;div&gt;-checkInTime:date&lt;/div&gt;&lt;/div&gt;&lt;div&gt;-checkOutTime:date&lt;/div&gt;&lt;div&gt;-Canceling:string&amp;nbsp;&lt;/div&gt;&lt;div&gt;&lt;br&gt;&lt;/div&gt;" style="text;strokeColor=none;fillColor=none;align=left;verticalAlign=top;spacingLeft=4;spacingRight=4;overflow=hidden;rotatable=0;points=[[0,0.5],[1,0.5]];portConstraint=eastwest;whiteSpace=wrap;html=1;" vertex="1" parent="yXndybNeEl5Hlsat1MIW-15">
          <mxGeometry y="26" width="180" height="84" as="geometry" />
        </mxCell>
        <mxCell id="yXndybNeEl5Hlsat1MIW-17" value="" style="line;strokeWidth=1;fillColor=none;align=left;verticalAlign=middle;spacingTop=-1;spacingLeft=3;spacingRight=3;rotatable=0;labelPosition=right;points=[];portConstraint=eastwest;strokeColor=inherit;" vertex="1" parent="yXndybNeEl5Hlsat1MIW-15">
          <mxGeometry y="110" width="180" height="8" as="geometry" />
        </mxCell>
        <mxCell id="yXndybNeEl5Hlsat1MIW-18" value="&lt;div&gt;&lt;div&gt;+Policy()&lt;/div&gt;&lt;/div&gt;&lt;div&gt;+bookRoom(chin , chout):void&lt;/div&gt;&lt;div&gt;+cancelRoom():void&lt;/div&gt;&lt;div&gt;&lt;br&gt;&lt;/div&gt;" style="text;strokeColor=none;fillColor=none;align=left;verticalAlign=top;spacingLeft=4;spacingRight=4;overflow=hidden;rotatable=0;points=[[0,0.5],[1,0.5]];portConstraint=eastwest;whiteSpace=wrap;html=1;" vertex="1" parent="yXndybNeEl5Hlsat1MIW-15">
          <mxGeometry y="118" width="180" height="52" as="geometry" />
        </mxCell>
        <mxCell id="yXndybNeEl5Hlsat1MIW-19" style="edgeStyle=orthogonalEdgeStyle;rounded=0;orthogonalLoop=1;jettySize=auto;html=1;exitX=1;exitY=0.5;exitDx=0;exitDy=0;entryX=0;entryY=0.5;entryDx=0;entryDy=0;endArrow=diamondThin;endFill=1;" edge="1" parent="WIyWlLk6GJQsqaUBKTNV-1" source="yXndybNeEl5Hlsat1MIW-16" target="yXndybNeEl5Hlsat1MIW-1">
          <mxGeometry relative="1" as="geometry" />
        </mxCell>
        <mxCell id="yXndybNeEl5Hlsat1MIW-24" style="edgeStyle=orthogonalEdgeStyle;rounded=0;orthogonalLoop=1;jettySize=auto;html=1;entryX=0;entryY=0.5;entryDx=0;entryDy=0;endArrow=block;endFill=0;" edge="1" parent="WIyWlLk6GJQsqaUBKTNV-1" source="yXndybNeEl5Hlsat1MIW-20" target="yXndybNeEl5Hlsat1MIW-11">
          <mxGeometry relative="1" as="geometry">
            <mxPoint x="-200" y="589.9999999999998" as="targetPoint" />
          </mxGeometry>
        </mxCell>
        <mxCell id="yXndybNeEl5Hlsat1MIW-25" value="Extends" style="edgeLabel;html=1;align=center;verticalAlign=middle;resizable=0;points=[];" vertex="1" connectable="0" parent="yXndybNeEl5Hlsat1MIW-24">
          <mxGeometry x="-0.0375" y="2" relative="1" as="geometry">
            <mxPoint x="-1" as="offset" />
          </mxGeometry>
        </mxCell>
        <mxCell id="yXndybNeEl5Hlsat1MIW-20" value="Facility" style="swimlane;fontStyle=1;align=center;verticalAlign=top;childLayout=stackLayout;horizontal=1;startSize=26;horizontalStack=0;resizeParent=1;resizeParentMax=0;resizeLast=0;collapsible=1;marginBottom=0;whiteSpace=wrap;html=1;" vertex="1" parent="WIyWlLk6GJQsqaUBKTNV-1">
          <mxGeometry x="-630" y="150" width="210" height="230" as="geometry" />
        </mxCell>
        <mxCell id="yXndybNeEl5Hlsat1MIW-21" value="-restaurant:string&lt;div&gt;-pool:void&lt;/div&gt;&lt;div&gt;-gym:bool&amp;nbsp;&lt;/div&gt;&lt;div&gt;-spa:string&lt;/div&gt;&lt;div&gt;-conferenceRoom:string&lt;/div&gt;&lt;div&gt;-parking:string&lt;/div&gt;" style="text;strokeColor=none;fillColor=none;align=left;verticalAlign=top;spacingLeft=4;spacingRight=4;overflow=hidden;rotatable=0;points=[[0,0.5],[1,0.5]];portConstraint=eastwest;whiteSpace=wrap;html=1;" vertex="1" parent="yXndybNeEl5Hlsat1MIW-20">
          <mxGeometry y="26" width="210" height="114" as="geometry" />
        </mxCell>
        <mxCell id="yXndybNeEl5Hlsat1MIW-22" value="" style="line;strokeWidth=1;fillColor=none;align=left;verticalAlign=middle;spacingTop=-1;spacingLeft=3;spacingRight=3;rotatable=0;labelPosition=right;points=[];portConstraint=eastwest;strokeColor=inherit;" vertex="1" parent="yXndybNeEl5Hlsat1MIW-20">
          <mxGeometry y="140" width="210" height="8" as="geometry" />
        </mxCell>
        <mxCell id="yXndybNeEl5Hlsat1MIW-23" value="setFaility(restaurant , pool , gym , spa , conferenceRoom , parking ):void&amp;nbsp;" style="text;strokeColor=none;fillColor=none;align=left;verticalAlign=top;spacingLeft=4;spacingRight=4;overflow=hidden;rotatable=0;points=[[0,0.5],[1,0.5]];portConstraint=eastwest;whiteSpace=wrap;html=1;" vertex="1" parent="yXndybNeEl5Hlsat1MIW-20">
          <mxGeometry y="148" width="210" height="82" as="geometry" />
        </mxCell>
      </root>
    </mxGraphModel>
  </diagram>
</mxfile>
